<?xml version="1.0" encoding="utf-8"?>
<!-- Generator: Adobe Illustrator 26.2.1, SVG Export Plug-In . SVG Version: 6.00 Build 0)  -->
<svg version="1.1" id="Слой_1" xmlns="http://www.w3.org/2000/svg" xmlns:xlink="http://www.w3.org/1999/xlink" x="0px" y="0px"
	 viewBox="0 0 24 24" style="enable-background:new 0 0 24 24;" xml:space="preserve">
<style type="text/css">
	.st0{fill-rule:evenodd;clip-rule:evenodd;}
</style>
<path class="st0" d="M2.7,0H1.3v24h1.3v-2.3c0-0.2,0.1-0.3,0.3-0.3h2c0.2,0,0.3,0.1,0.3,0.3V24h1.3v-3.3C6.7,20.3,7,20,7.3,20h9.3
	c0.4,0,0.7,0.3,0.7,0.7V24h1.3v-2.3c0-0.2,0.1-0.3,0.3-0.3h2c0.2,0,0.3,0.1,0.3,0.3V24h1.3V0h-1.3v2.3c0,0.2-0.1,0.3-0.3,0.3h-2
	c-0.2,0-0.3-0.1-0.3-0.3V0h-1.3v4.7c0,0.4-0.3,0.7-0.7,0.7H7.3C7,5.3,6.7,5,6.7,4.7V0H5.3v2.3c0,0.2-0.1,0.3-0.3,0.3H3
	c-0.2,0-0.3-0.1-0.3-0.3V0z M7.3,6.7h9.3c0.4,0,0.7,0.3,0.7,0.7v4c0,0.4-0.3,0.7-0.7,0.7H7.3c-0.4,0-0.7-0.3-0.7-0.7v-4
	C6.7,7,7,6.7,7.3,6.7z M16.7,13.3H7.3c-0.4,0-0.7,0.3-0.7,0.7v4c0,0.4,0.3,0.7,0.7,0.7h9.3c0.4,0,0.7-0.3,0.7-0.7v-4
	C17.3,13.6,17,13.3,16.7,13.3z M5,5.3H3c-0.2,0-0.3,0.1-0.3,0.3v2C2.7,7.9,2.8,8,3,8h2c0.2,0,0.3-0.1,0.3-0.3v-2
	C5.3,5.5,5.2,5.3,5,5.3z M19,5.3h2c0.2,0,0.3,0.1,0.3,0.3v2C21.3,7.9,21.2,8,21,8h-2c-0.2,0-0.3-0.1-0.3-0.3v-2
	C18.7,5.5,18.8,5.3,19,5.3z M5,10.7H3c-0.2,0-0.3,0.1-0.3,0.3v2c0,0.2,0.1,0.3,0.3,0.3h2c0.2,0,0.3-0.1,0.3-0.3v-2
	C5.3,10.8,5.2,10.7,5,10.7z M19,10.7h2c0.2,0,0.3,0.1,0.3,0.3v2c0,0.2-0.1,0.3-0.3,0.3h-2c-0.2,0-0.3-0.1-0.3-0.3v-2
	C18.7,10.8,18.8,10.7,19,10.7z M5,16H3c-0.2,0-0.3,0.1-0.3,0.3v2c0,0.2,0.1,0.3,0.3,0.3h2c0.2,0,0.3-0.1,0.3-0.3v-2
	C5.3,16.1,5.2,16,5,16z M19,16h2c0.2,0,0.3,0.1,0.3,0.3v2c0,0.2-0.1,0.3-0.3,0.3h-2c-0.2,0-0.3-0.1-0.3-0.3v-2
	C18.7,16.1,18.8,16,19,16z"/>
</svg>
